<?xml version="1.0" encoding="UTF-8"?>
<svg xmlns="http://www.w3.org/2000/svg" xmlns:xlink="http://www.w3.org/1999/xlink" width="854" height="480" viewBox="0 0 854 480">
<defs>
<g>
<g id="glyph-0-0">
<path d="M 3.152344 -1.539062 C 3.152344 -1.191406 3.097656 -0.867188 2.988281 -0.5625 C 2.878906 -0.257812 2.71875 0.0117188 2.515625 0.242188 C 2.3125 0.46875 2.070312 0.65625 1.78125 0.808594 C 1.492188 0.957031 1.167969 1.054688 0.808594 1.105469 L 0.753906 0.835938 L 1.023438 0.789062 C 1.449219 0.652344 1.785156 0.445312 2.027344 0.164062 C 2.265625 -0.117188 2.421875 -0.472656 2.492188 -0.902344 C 2.328125 -0.765625 2.164062 -0.664062 2.003906 -0.597656 C 1.839844 -0.535156 1.660156 -0.5 1.457031 -0.5 C 1.132812 -0.5 0.851562 -0.628906 0.609375 -0.878906 C 0.371094 -1.132812 0.25 -1.449219 0.25 -1.832031 C 0.25 -2.246094 0.390625 -2.589844 0.667969 -2.875 C 0.945312 -3.15625 1.285156 -3.296875 1.695312 -3.296875 C 2.136719 -3.296875 2.492188 -3.140625 2.753906 -2.824219 C 3.019531 -2.507812 3.152344 -2.078125 3.152344 -1.539062 M 2.519531 -1.574219 C 2.519531 -2.039062 2.441406 -2.402344 2.289062 -2.664062 C 2.136719 -2.929688 1.9375 -3.0625 1.6875 -3.0625 C 1.453125 -3.0625 1.261719 -2.960938 1.117188 -2.753906 C 0.972656 -2.550781 0.898438 -2.269531 0.898438 -1.914062 C 0.898438 -1.589844 0.972656 -1.332031 1.121094 -1.136719 C 1.269531 -0.941406 1.46875 -0.84375 1.714844 -0.84375 C 1.871094 -0.84375 2.011719 -0.871094 2.140625 -0.929688 C 2.273438 -0.984375 2.390625 -1.078125 2.503906 -1.203125 C 2.503906 -1.210938 2.503906 -1.226562 2.507812 -1.25 C 2.511719 -1.273438 2.511719 -1.308594 2.511719 -1.351562 C 2.511719 -1.378906 2.511719 -1.414062 2.515625 -1.453125 C 2.515625 -1.492188 2.519531 -1.53125 2.519531 -1.574219 Z "/>
</g>
<g id="glyph-0-1">
<path d="M 2.414062 0 L 0.402344 0 L 0.402344 -0.210938 C 0.460938 -0.214844 0.554688 -0.222656 0.683594 -0.238281 C 0.808594 -0.25 0.894531 -0.261719 0.941406 -0.277344 C 1.003906 -0.296875 1.050781 -0.328125 1.085938 -0.375 C 1.117188 -0.417969 1.132812 -0.488281 1.132812 -0.574219 L 1.132812 -2.671875 L 0.390625 -2.671875 L 0.390625 -2.921875 L 0.554688 -2.921875 C 0.769531 -2.921875 0.960938 -2.960938 1.132812 -3.039062 C 1.300781 -3.121094 1.425781 -3.207031 1.496094 -3.296875 L 1.746094 -3.296875 C 1.738281 -3.167969 1.734375 -3.015625 1.726562 -2.84375 C 1.722656 -2.671875 1.71875 -2.515625 1.71875 -2.378906 L 1.71875 -0.609375 C 1.71875 -0.539062 1.734375 -0.476562 1.765625 -0.421875 C 1.796875 -0.367188 1.839844 -0.328125 1.898438 -0.300781 C 1.949219 -0.28125 2.035156 -0.257812 2.152344 -0.242188 C 2.269531 -0.222656 2.355469 -0.214844 2.414062 -0.210938 Z "/>
</g>
</g>
</defs>
<g fill="rgb(100%, 100%, 100%)" fill-opacity="1">
<use xlink:href="#glyph-0-0" x="30" y="25.603516"/>
<use xlink:href="#glyph-0-1" x="33" y="25.603516"/>
</g>
</svg>
