<?xml version="1.0" encoding="UTF-8"?>
<svg xmlns="http://www.w3.org/2000/svg" xmlns:xlink="http://www.w3.org/1999/xlink" width="854" height="480" viewBox="0 0 854 480">
<defs>
<g>
<g id="glyph-0-0">
<path d="M 2.890625 -2.609375 C 2.890625 -2.429688 2.855469 -2.269531 2.785156 -2.128906 C 2.714844 -1.992188 2.617188 -1.875 2.492188 -1.785156 C 2.367188 -1.695312 2.230469 -1.625 2.082031 -1.585938 C 1.933594 -1.542969 1.777344 -1.519531 1.609375 -1.519531 L 1.222656 -1.519531 L 1.222656 -0.472656 C 1.222656 -0.414062 1.234375 -0.363281 1.25 -0.320312 C 1.269531 -0.277344 1.308594 -0.246094 1.367188 -0.222656 C 1.398438 -0.210938 1.449219 -0.199219 1.523438 -0.191406 C 1.597656 -0.179688 1.664062 -0.175781 1.726562 -0.171875 L 1.726562 0 L 0.238281 0 L 0.238281 -0.171875 C 0.277344 -0.175781 0.335938 -0.183594 0.410156 -0.191406 C 0.484375 -0.199219 0.535156 -0.210938 0.5625 -0.222656 C 0.613281 -0.242188 0.648438 -0.273438 0.671875 -0.316406 C 0.691406 -0.355469 0.703125 -0.40625 0.703125 -0.472656 L 0.703125 -2.972656 C 0.703125 -3.027344 0.695312 -3.078125 0.679688 -3.125 C 0.664062 -3.171875 0.625 -3.203125 0.5625 -3.226562 C 0.503906 -3.25 0.441406 -3.265625 0.378906 -3.273438 C 0.320312 -3.28125 0.265625 -3.289062 0.222656 -3.289062 L 0.222656 -3.464844 L 1.804688 -3.464844 C 2.125 -3.464844 2.386719 -3.386719 2.589844 -3.230469 C 2.789062 -3.074219 2.890625 -2.867188 2.890625 -2.609375 M 2.148438 -2.019531 C 2.203125 -2.097656 2.242188 -2.179688 2.257812 -2.261719 C 2.277344 -2.347656 2.285156 -2.421875 2.285156 -2.488281 C 2.285156 -2.582031 2.273438 -2.675781 2.253906 -2.769531 C 2.230469 -2.867188 2.191406 -2.949219 2.140625 -3.023438 C 2.082031 -3.097656 2.007812 -3.160156 1.914062 -3.199219 C 1.820312 -3.242188 1.707031 -3.265625 1.566406 -3.265625 L 1.222656 -3.265625 L 1.222656 -1.734375 L 1.472656 -1.734375 C 1.648438 -1.734375 1.789062 -1.761719 1.902344 -1.816406 C 2.011719 -1.871094 2.09375 -1.9375 2.148438 -2.019531 Z "/>
</g>
<g id="glyph-0-1">
<path d="M 2.3125 -0.566406 C 2.214844 -0.375 2.078125 -0.222656 1.910156 -0.109375 C 1.738281 0.0078125 1.546875 0.0625 1.324219 0.0625 C 1.132812 0.0625 0.960938 0.0273438 0.816406 -0.0390625 C 0.671875 -0.105469 0.550781 -0.199219 0.457031 -0.316406 C 0.363281 -0.433594 0.292969 -0.570312 0.246094 -0.726562 C 0.199219 -0.882812 0.175781 -1.050781 0.175781 -1.222656 C 0.175781 -1.378906 0.199219 -1.53125 0.25 -1.683594 C 0.300781 -1.832031 0.371094 -1.96875 0.46875 -2.089844 C 0.5625 -2.207031 0.675781 -2.296875 0.8125 -2.371094 C 0.953125 -2.441406 1.105469 -2.476562 1.277344 -2.476562 C 1.453125 -2.476562 1.601562 -2.449219 1.726562 -2.390625 C 1.855469 -2.335938 1.957031 -2.261719 2.035156 -2.164062 C 2.109375 -2.074219 2.164062 -1.96875 2.199219 -1.84375 C 2.238281 -1.71875 2.253906 -1.585938 2.257812 -1.441406 L 2.257812 -1.28125 L 0.660156 -1.28125 C 0.660156 -1.121094 0.675781 -0.976562 0.707031 -0.847656 C 0.738281 -0.71875 0.785156 -0.605469 0.851562 -0.507812 C 0.914062 -0.414062 0.996094 -0.339844 1.097656 -0.285156 C 1.199219 -0.230469 1.324219 -0.203125 1.464844 -0.203125 C 1.609375 -0.203125 1.734375 -0.238281 1.839844 -0.304688 C 1.945312 -0.371094 2.046875 -0.496094 2.144531 -0.671875 L 2.3125 -0.566406 M 1.773438 -1.484375 C 1.773438 -1.574219 1.765625 -1.671875 1.75 -1.777344 C 1.734375 -1.878906 1.710938 -1.96875 1.675781 -2.035156 C 1.640625 -2.113281 1.589844 -2.171875 1.523438 -2.21875 C 1.457031 -2.265625 1.375 -2.289062 1.273438 -2.289062 C 1.101562 -2.289062 0.960938 -2.21875 0.847656 -2.078125 C 0.734375 -1.933594 0.671875 -1.738281 0.660156 -1.484375 Z "/>
</g>
</g>
</defs>
<g fill="rgb(96.862745%, 85.098039%, 43.529412%)" fill-opacity="1">
<use xlink:href="#glyph-0-0" x="30" y="24.584961"/>
<use xlink:href="#glyph-0-1" x="33" y="24.584961"/>
</g>
</svg>
