<?xml version="1.0" encoding="UTF-8"?>
<svg xmlns="http://www.w3.org/2000/svg" xmlns:xlink="http://www.w3.org/1999/xlink" width="854" height="480" viewBox="0 0 854 480">
<defs>
<g>
<g id="glyph-0-0">
<path d="M 2.25 -2.03125 C 2.25 -1.890625 2.222656 -1.765625 2.164062 -1.65625 C 2.109375 -1.546875 2.035156 -1.460938 1.9375 -1.386719 C 1.839844 -1.316406 1.734375 -1.265625 1.621094 -1.234375 C 1.503906 -1.199219 1.382812 -1.183594 1.253906 -1.183594 L 0.953125 -1.183594 L 0.953125 -0.367188 C 0.953125 -0.320312 0.957031 -0.285156 0.972656 -0.25 C 0.988281 -0.214844 1.019531 -0.191406 1.0625 -0.171875 C 1.085938 -0.164062 1.125 -0.15625 1.183594 -0.148438 C 1.242188 -0.140625 1.292969 -0.136719 1.34375 -0.136719 L 1.34375 0 L 0.1875 0 L 0.1875 -0.136719 C 0.214844 -0.136719 0.261719 -0.140625 0.316406 -0.148438 C 0.375 -0.15625 0.414062 -0.164062 0.4375 -0.171875 C 0.476562 -0.1875 0.503906 -0.214844 0.519531 -0.246094 C 0.539062 -0.277344 0.546875 -0.316406 0.546875 -0.367188 L 0.546875 -2.3125 C 0.546875 -2.355469 0.539062 -2.394531 0.527344 -2.429688 C 0.515625 -2.464844 0.484375 -2.492188 0.4375 -2.511719 C 0.390625 -2.527344 0.34375 -2.539062 0.296875 -2.546875 C 0.246094 -2.550781 0.207031 -2.558594 0.171875 -2.558594 L 0.171875 -2.695312 L 1.402344 -2.695312 C 1.652344 -2.695312 1.859375 -2.632812 2.015625 -2.511719 C 2.171875 -2.390625 2.25 -2.230469 2.25 -2.03125 M 1.671875 -1.570312 C 1.714844 -1.632812 1.742188 -1.695312 1.757812 -1.757812 C 1.769531 -1.824219 1.777344 -1.882812 1.777344 -1.933594 C 1.777344 -2.007812 1.769531 -2.082031 1.75 -2.15625 C 1.734375 -2.230469 1.707031 -2.296875 1.664062 -2.351562 C 1.621094 -2.410156 1.5625 -2.457031 1.488281 -2.488281 C 1.417969 -2.523438 1.328125 -2.539062 1.21875 -2.539062 L 0.953125 -2.539062 L 0.953125 -1.347656 L 1.144531 -1.347656 C 1.28125 -1.347656 1.394531 -1.371094 1.476562 -1.410156 C 1.5625 -1.453125 1.628906 -1.507812 1.671875 -1.570312 Z "/>
</g>
<g id="glyph-0-1">
<path d="M 1.570312 -1.632812 C 1.570312 -1.566406 1.554688 -1.507812 1.523438 -1.460938 C 1.492188 -1.410156 1.441406 -1.382812 1.375 -1.382812 C 1.304688 -1.382812 1.25 -1.402344 1.214844 -1.441406 C 1.175781 -1.476562 1.160156 -1.515625 1.160156 -1.5625 C 1.160156 -1.589844 1.160156 -1.613281 1.164062 -1.636719 C 1.167969 -1.660156 1.171875 -1.683594 1.175781 -1.707031 C 1.117188 -1.707031 1.046875 -1.679688 0.96875 -1.632812 C 0.890625 -1.585938 0.820312 -1.515625 0.765625 -1.429688 L 0.765625 -0.339844 C 0.765625 -0.292969 0.773438 -0.257812 0.789062 -0.230469 C 0.808594 -0.203125 0.835938 -0.179688 0.871094 -0.167969 C 0.902344 -0.15625 0.945312 -0.144531 0.996094 -0.136719 C 1.042969 -0.132812 1.085938 -0.128906 1.125 -0.125 L 1.125 0 L 0.136719 0 L 0.136719 -0.125 C 0.164062 -0.128906 0.195312 -0.128906 0.226562 -0.132812 C 0.257812 -0.136719 0.285156 -0.140625 0.308594 -0.148438 C 0.34375 -0.160156 0.371094 -0.179688 0.386719 -0.207031 C 0.402344 -0.234375 0.410156 -0.273438 0.410156 -0.320312 L 0.410156 -1.472656 C 0.410156 -1.511719 0.402344 -1.550781 0.382812 -1.589844 C 0.367188 -1.628906 0.339844 -1.65625 0.308594 -1.679688 C 0.285156 -1.695312 0.253906 -1.707031 0.222656 -1.714844 C 0.1875 -1.722656 0.152344 -1.726562 0.117188 -1.726562 L 0.117188 -1.851562 L 0.738281 -1.894531 L 0.765625 -1.867188 L 0.765625 -1.605469 L 0.773438 -1.605469 C 0.851562 -1.707031 0.941406 -1.785156 1.035156 -1.839844 C 1.132812 -1.890625 1.222656 -1.917969 1.300781 -1.917969 C 1.378906 -1.917969 1.445312 -1.890625 1.496094 -1.839844 C 1.546875 -1.789062 1.570312 -1.71875 1.570312 -1.632812 Z "/>
</g>
<g id="glyph-0-2">
<path d="M 1.042969 0 L 0.140625 0 L 0.140625 -0.125 C 0.167969 -0.128906 0.199219 -0.128906 0.230469 -0.132812 C 0.261719 -0.136719 0.289062 -0.140625 0.3125 -0.148438 C 0.347656 -0.160156 0.375 -0.179688 0.390625 -0.207031 C 0.40625 -0.234375 0.414062 -0.273438 0.414062 -0.320312 L 0.414062 -1.472656 C 0.414062 -1.515625 0.40625 -1.550781 0.386719 -1.585938 C 0.371094 -1.617188 0.34375 -1.648438 0.3125 -1.667969 C 0.289062 -1.683594 0.253906 -1.699219 0.207031 -1.707031 C 0.160156 -1.71875 0.121094 -1.726562 0.0820312 -1.726562 L 0.0820312 -1.851562 L 0.742188 -1.894531 L 0.769531 -1.867188 L 0.769531 -0.34375 C 0.769531 -0.296875 0.777344 -0.261719 0.792969 -0.230469 C 0.8125 -0.203125 0.839844 -0.179688 0.875 -0.167969 C 0.902344 -0.15625 0.929688 -0.148438 0.957031 -0.140625 C 0.980469 -0.132812 1.011719 -0.128906 1.042969 -0.125 L 1.042969 0 M 0.808594 -2.632812 C 0.808594 -2.5625 0.785156 -2.5 0.734375 -2.445312 C 0.6875 -2.390625 0.628906 -2.363281 0.558594 -2.363281 C 0.496094 -2.363281 0.441406 -2.390625 0.390625 -2.441406 C 0.34375 -2.492188 0.320312 -2.550781 0.320312 -2.617188 C 0.320312 -2.6875 0.34375 -2.746094 0.390625 -2.800781 C 0.441406 -2.851562 0.496094 -2.878906 0.558594 -2.878906 C 0.632812 -2.878906 0.691406 -2.851562 0.738281 -2.804688 C 0.785156 -2.753906 0.808594 -2.699219 0.808594 -2.632812 Z "/>
</g>
<g id="glyph-0-3">
<path d="M 1.003906 0.0507812 C 0.730469 0.0507812 0.519531 -0.0390625 0.367188 -0.21875 C 0.214844 -0.398438 0.136719 -0.640625 0.136719 -0.945312 C 0.136719 -1.074219 0.15625 -1.199219 0.199219 -1.3125 C 0.238281 -1.429688 0.300781 -1.53125 0.378906 -1.625 C 0.453125 -1.714844 0.546875 -1.789062 0.660156 -1.84375 C 0.773438 -1.898438 0.894531 -1.925781 1.027344 -1.925781 C 1.210938 -1.925781 1.359375 -1.882812 1.476562 -1.792969 C 1.589844 -1.707031 1.648438 -1.585938 1.648438 -1.433594 C 1.648438 -1.371094 1.632812 -1.316406 1.601562 -1.265625 C 1.574219 -1.21875 1.523438 -1.191406 1.453125 -1.191406 C 1.378906 -1.191406 1.320312 -1.210938 1.277344 -1.25 C 1.238281 -1.289062 1.21875 -1.328125 1.21875 -1.375 C 1.21875 -1.433594 1.226562 -1.492188 1.238281 -1.550781 C 1.253906 -1.609375 1.265625 -1.65625 1.265625 -1.683594 C 1.242188 -1.722656 1.210938 -1.75 1.164062 -1.761719 C 1.121094 -1.773438 1.070312 -1.78125 1.019531 -1.78125 C 0.960938 -1.78125 0.902344 -1.769531 0.847656 -1.742188 C 0.792969 -1.714844 0.738281 -1.667969 0.6875 -1.597656 C 0.640625 -1.535156 0.601562 -1.449219 0.574219 -1.34375 C 0.542969 -1.234375 0.53125 -1.105469 0.53125 -0.957031 C 0.53125 -0.722656 0.582031 -0.53125 0.6875 -0.378906 C 0.789062 -0.230469 0.925781 -0.15625 1.097656 -0.15625 C 1.21875 -0.15625 1.320312 -0.1875 1.40625 -0.246094 C 1.488281 -0.308594 1.566406 -0.398438 1.636719 -0.515625 L 1.757812 -0.4375 C 1.671875 -0.289062 1.5625 -0.167969 1.425781 -0.0820312 C 1.289062 0.00390625 1.148438 0.0507812 1.003906 0.0507812 Z "/>
</g>
<g id="glyph-0-4">
<path d="M 1.800781 -0.441406 C 1.722656 -0.292969 1.617188 -0.171875 1.484375 -0.0820312 C 1.351562 0.00390625 1.203125 0.0507812 1.03125 0.0507812 C 0.878906 0.0507812 0.75 0.0234375 0.636719 -0.03125 C 0.523438 -0.0820312 0.429688 -0.15625 0.355469 -0.246094 C 0.28125 -0.339844 0.226562 -0.445312 0.191406 -0.566406 C 0.15625 -0.6875 0.136719 -0.816406 0.136719 -0.953125 C 0.136719 -1.074219 0.15625 -1.191406 0.195312 -1.308594 C 0.234375 -1.425781 0.289062 -1.53125 0.363281 -1.625 C 0.4375 -1.714844 0.527344 -1.789062 0.632812 -1.84375 C 0.742188 -1.898438 0.859375 -1.925781 0.992188 -1.925781 C 1.128906 -1.925781 1.246094 -1.902344 1.34375 -1.859375 C 1.441406 -1.816406 1.519531 -1.757812 1.582031 -1.683594 C 1.640625 -1.613281 1.683594 -1.53125 1.710938 -1.433594 C 1.742188 -1.335938 1.753906 -1.234375 1.753906 -1.121094 L 1.753906 -0.996094 L 0.515625 -0.996094 C 0.515625 -0.871094 0.527344 -0.761719 0.550781 -0.660156 C 0.574219 -0.558594 0.609375 -0.472656 0.660156 -0.394531 C 0.710938 -0.320312 0.773438 -0.265625 0.855469 -0.222656 C 0.933594 -0.179688 1.03125 -0.15625 1.140625 -0.15625 C 1.253906 -0.15625 1.347656 -0.183594 1.429688 -0.238281 C 1.511719 -0.289062 1.589844 -0.386719 1.667969 -0.523438 L 1.800781 -0.441406 M 1.378906 -1.15625 C 1.378906 -1.226562 1.375 -1.300781 1.363281 -1.382812 C 1.351562 -1.460938 1.332031 -1.53125 1.304688 -1.585938 C 1.277344 -1.640625 1.234375 -1.691406 1.183594 -1.726562 C 1.132812 -1.761719 1.070312 -1.78125 0.988281 -1.78125 C 0.855469 -1.78125 0.746094 -1.726562 0.65625 -1.617188 C 0.570312 -1.503906 0.523438 -1.351562 0.515625 -1.15625 Z "/>
</g>
<g id="glyph-0-5">
</g>
<g id="glyph-0-6">
<path d="M 2.347656 -0.800781 L 2.292969 0 L 0.1875 0 L 0.1875 -0.136719 C 0.214844 -0.136719 0.261719 -0.140625 0.316406 -0.148438 C 0.375 -0.15625 0.414062 -0.164062 0.4375 -0.171875 C 0.476562 -0.1875 0.503906 -0.214844 0.519531 -0.246094 C 0.539062 -0.277344 0.546875 -0.316406 0.546875 -0.367188 L 0.546875 -2.296875 C 0.546875 -2.339844 0.539062 -2.378906 0.523438 -2.410156 C 0.511719 -2.441406 0.480469 -2.46875 0.4375 -2.488281 C 0.410156 -2.503906 0.367188 -2.519531 0.316406 -2.535156 C 0.261719 -2.550781 0.21875 -2.558594 0.1875 -2.558594 L 0.1875 -2.695312 L 1.324219 -2.695312 L 1.324219 -2.558594 C 1.289062 -2.558594 1.242188 -2.550781 1.1875 -2.539062 C 1.128906 -2.53125 1.089844 -2.519531 1.0625 -2.511719 C 1.019531 -2.496094 0.992188 -2.46875 0.976562 -2.433594 C 0.960938 -2.394531 0.953125 -2.355469 0.953125 -2.316406 L 0.953125 -0.503906 C 0.953125 -0.421875 0.957031 -0.355469 0.964844 -0.308594 C 0.972656 -0.265625 0.992188 -0.230469 1.023438 -0.203125 C 1.050781 -0.179688 1.09375 -0.164062 1.152344 -0.160156 C 1.210938 -0.152344 1.289062 -0.148438 1.394531 -0.148438 C 1.441406 -0.148438 1.488281 -0.148438 1.539062 -0.152344 C 1.589844 -0.15625 1.640625 -0.160156 1.683594 -0.167969 C 1.730469 -0.175781 1.769531 -0.183594 1.808594 -0.199219 C 1.84375 -0.210938 1.871094 -0.230469 1.890625 -0.25 C 1.941406 -0.308594 2 -0.394531 2.070312 -0.515625 C 2.140625 -0.632812 2.1875 -0.726562 2.214844 -0.800781 Z "/>
</g>
<g id="glyph-0-7">
<path d="M 2.363281 -2.375 C 2.480469 -2.25 2.574219 -2.101562 2.640625 -1.925781 C 2.707031 -1.75 2.742188 -1.558594 2.742188 -1.34375 C 2.742188 -1.128906 2.707031 -0.9375 2.640625 -0.761719 C 2.570312 -0.585938 2.476562 -0.4375 2.355469 -0.316406 C 2.238281 -0.195312 2.101562 -0.101562 1.945312 -0.0351562 C 1.789062 0.03125 1.625 0.0664062 1.445312 0.0664062 C 1.257812 0.0664062 1.085938 0.03125 0.925781 -0.0390625 C 0.769531 -0.109375 0.632812 -0.207031 0.519531 -0.335938 C 0.40625 -0.457031 0.316406 -0.605469 0.25 -0.78125 C 0.183594 -0.957031 0.152344 -1.144531 0.152344 -1.34375 C 0.152344 -1.5625 0.1875 -1.757812 0.253906 -1.929688 C 0.324219 -2.101562 0.417969 -2.25 0.539062 -2.375 C 0.65625 -2.5 0.792969 -2.59375 0.953125 -2.660156 C 1.109375 -2.726562 1.273438 -2.757812 1.445312 -2.757812 C 1.625 -2.757812 1.792969 -2.726562 1.953125 -2.660156 C 2.109375 -2.589844 2.246094 -2.496094 2.363281 -2.375 M 2.078125 -0.464844 C 2.152344 -0.582031 2.203125 -0.710938 2.234375 -0.855469 C 2.265625 -1.003906 2.28125 -1.164062 2.28125 -1.34375 C 2.28125 -1.53125 2.265625 -1.699219 2.230469 -1.851562 C 2.191406 -2.007812 2.140625 -2.140625 2.070312 -2.25 C 2 -2.355469 1.914062 -2.441406 1.808594 -2.5 C 1.703125 -2.558594 1.582031 -2.589844 1.445312 -2.589844 C 1.296875 -2.589844 1.167969 -2.554688 1.058594 -2.484375 C 0.953125 -2.417969 0.867188 -2.324219 0.800781 -2.207031 C 0.734375 -2.09375 0.6875 -1.964844 0.65625 -1.816406 C 0.628906 -1.667969 0.613281 -1.507812 0.613281 -1.34375 C 0.613281 -1.164062 0.628906 -0.996094 0.660156 -0.851562 C 0.695312 -0.703125 0.746094 -0.574219 0.816406 -0.460938 C 0.886719 -0.347656 0.972656 -0.261719 1.074219 -0.199219 C 1.179688 -0.136719 1.304688 -0.105469 1.445312 -0.105469 C 1.582031 -0.105469 1.703125 -0.136719 1.8125 -0.199219 C 1.921875 -0.261719 2.011719 -0.351562 2.078125 -0.464844 Z "/>
</g>
<g id="glyph-0-8">
<path d="M 3.851562 -2.558594 C 3.820312 -2.558594 3.78125 -2.550781 3.742188 -2.539062 C 3.699219 -2.523438 3.660156 -2.507812 3.625 -2.484375 C 3.582031 -2.457031 3.546875 -2.425781 3.519531 -2.390625 C 3.492188 -2.355469 3.46875 -2.304688 3.445312 -2.238281 C 3.355469 -1.945312 3.253906 -1.605469 3.132812 -1.214844 C 3.015625 -0.824219 2.886719 -0.40625 2.746094 0.0351562 L 2.574219 0.0351562 L 1.894531 -2.042969 L 1.1875 0.0351562 L 1.019531 0.0351562 C 0.890625 -0.410156 0.761719 -0.867188 0.628906 -1.34375 C 0.496094 -1.820312 0.40625 -2.140625 0.359375 -2.304688 C 0.347656 -2.34375 0.332031 -2.378906 0.308594 -2.40625 C 0.285156 -2.4375 0.257812 -2.464844 0.21875 -2.492188 C 0.1875 -2.511719 0.148438 -2.527344 0.105469 -2.539062 C 0.0664062 -2.550781 0.0273438 -2.558594 -0.0078125 -2.558594 L -0.0078125 -2.695312 L 1.089844 -2.695312 L 1.089844 -2.558594 C 0.996094 -2.554688 0.914062 -2.546875 0.84375 -2.53125 C 0.777344 -2.515625 0.742188 -2.492188 0.742188 -2.460938 C 0.742188 -2.449219 0.746094 -2.433594 0.75 -2.410156 C 0.753906 -2.390625 0.757812 -2.375 0.757812 -2.359375 C 0.789062 -2.25 0.839844 -2.066406 0.914062 -1.808594 C 0.988281 -1.550781 1.097656 -1.167969 1.242188 -0.652344 L 1.914062 -2.65625 L 2.101562 -2.65625 L 2.78125 -0.609375 C 2.871094 -0.925781 2.949219 -1.199219 3.015625 -1.433594 C 3.082031 -1.671875 3.136719 -1.871094 3.179688 -2.039062 C 3.210938 -2.15625 3.230469 -2.238281 3.238281 -2.28125 C 3.246094 -2.324219 3.246094 -2.363281 3.246094 -2.394531 C 3.246094 -2.4375 3.21875 -2.472656 3.160156 -2.5 C 3.101562 -2.53125 3.003906 -2.550781 2.875 -2.558594 L 2.875 -2.695312 L 3.851562 -2.695312 Z "/>
</g>
<g id="glyph-0-9">
<path d="M 1.292969 -0.882812 L 0.160156 -0.882812 L 0.160156 -1.179688 L 1.292969 -1.179688 Z "/>
</g>
<g id="glyph-0-10">
<path d="M 2.132812 -0.957031 L 0.378906 -0.0429688 L 0.378906 -0.304688 L 1.835938 -1.0625 L 0.378906 -1.820312 L 0.378906 -2.082031 L 2.132812 -1.167969 Z "/>
</g>
</g>
</defs>
<g fill="rgb(60.392157%, 44.705882%, 67.45098%)" fill-opacity="1">
<use xlink:href="#glyph-0-0" x="30" y="23.56543"/>
<use xlink:href="#glyph-0-1" x="32" y="23.56543"/>
<use xlink:href="#glyph-0-2" x="34" y="23.56543"/>
<use xlink:href="#glyph-0-3" x="35" y="23.56543"/>
<use xlink:href="#glyph-0-4" x="37" y="23.56543"/>
<use xlink:href="#glyph-0-5" x="39" y="23.56543"/>
<use xlink:href="#glyph-0-6" x="40" y="23.56543"/>
<use xlink:href="#glyph-0-7" x="42" y="23.56543"/>
<use xlink:href="#glyph-0-8" x="45" y="23.56543"/>
<use xlink:href="#glyph-0-5" x="49" y="23.56543"/>
<use xlink:href="#glyph-0-9" x="50" y="23.56543"/>
<use xlink:href="#glyph-0-10" x="51" y="23.56543"/>
</g>
</svg>
