<?xml version="1.0" encoding="UTF-8"?>
<svg xmlns="http://www.w3.org/2000/svg" xmlns:xlink="http://www.w3.org/1999/xlink" width="854" height="480" viewBox="0 0 854 480">
<defs>
<g>
<g id="glyph-0-0">
<path d="M 2.15625 0.101562 C 1.902344 0.101562 1.660156 0.0507812 1.429688 -0.046875 C 1.199219 -0.148438 0.992188 -0.289062 0.8125 -0.476562 C 0.636719 -0.664062 0.496094 -0.894531 0.390625 -1.164062 C 0.285156 -1.433594 0.234375 -1.738281 0.234375 -2.074219 C 0.234375 -2.414062 0.285156 -2.71875 0.386719 -2.996094 C 0.492188 -3.273438 0.632812 -3.507812 0.816406 -3.707031 C 0.996094 -3.90625 1.210938 -4.058594 1.457031 -4.164062 C 1.703125 -4.273438 1.96875 -4.328125 2.246094 -4.328125 C 2.457031 -4.328125 2.644531 -4.300781 2.8125 -4.25 C 2.984375 -4.195312 3.144531 -4.125 3.296875 -4.03125 L 3.417969 -4.234375 L 3.65625 -4.234375 L 3.683594 -2.722656 L 3.441406 -2.722656 C 3.410156 -2.871094 3.359375 -3.03125 3.296875 -3.203125 C 3.234375 -3.375 3.160156 -3.519531 3.074219 -3.640625 C 2.976562 -3.777344 2.863281 -3.882812 2.734375 -3.957031 C 2.601562 -4.035156 2.453125 -4.074219 2.285156 -4.074219 C 2.089844 -4.074219 1.910156 -4.03125 1.746094 -3.945312 C 1.582031 -3.859375 1.4375 -3.730469 1.316406 -3.566406 C 1.199219 -3.402344 1.109375 -3.199219 1.042969 -2.949219 C 0.980469 -2.703125 0.945312 -2.421875 0.945312 -2.117188 C 0.945312 -1.847656 0.980469 -1.597656 1.046875 -1.371094 C 1.117188 -1.144531 1.214844 -0.949219 1.34375 -0.777344 C 1.46875 -0.605469 1.621094 -0.472656 1.792969 -0.378906 C 1.96875 -0.285156 2.160156 -0.234375 2.375 -0.234375 C 2.539062 -0.234375 2.683594 -0.261719 2.820312 -0.3125 C 2.957031 -0.363281 3.074219 -0.429688 3.171875 -0.511719 C 3.273438 -0.601562 3.359375 -0.699219 3.433594 -0.8125 C 3.511719 -0.921875 3.570312 -1.042969 3.621094 -1.175781 L 3.84375 -1.066406 C 3.671875 -0.648438 3.445312 -0.347656 3.164062 -0.167969 C 2.882812 0.0117188 2.546875 0.101562 2.15625 0.101562 Z "/>
</g>
<g id="glyph-0-1">
</g>
<g id="glyph-0-2">
<path d="M 2.089844 0.980469 C 1.546875 0.910156 1.121094 0.636719 0.8125 0.15625 C 0.503906 -0.320312 0.347656 -0.964844 0.347656 -1.777344 C 0.347656 -2.605469 0.503906 -3.257812 0.8125 -3.738281 C 1.121094 -4.222656 1.546875 -4.5 2.089844 -4.570312 L 2.089844 -4.324219 C 1.710938 -4.253906 1.417969 -4.011719 1.21875 -3.59375 C 1.019531 -3.175781 0.921875 -2.566406 0.921875 -1.773438 C 0.921875 -1.015625 1.019531 -0.425781 1.214844 -0.00390625 C 1.410156 0.417969 1.703125 0.664062 2.089844 0.734375 Z "/>
</g>
<g id="glyph-0-3">
<path d="M 3.125 0 L 0.328125 0 L 0.328125 -0.40625 C 0.382812 -0.46875 0.457031 -0.539062 0.550781 -0.617188 C 0.648438 -0.691406 0.761719 -0.773438 0.890625 -0.863281 C 0.972656 -0.917969 1.066406 -0.976562 1.179688 -1.039062 C 1.289062 -1.105469 1.417969 -1.171875 1.558594 -1.25 C 1.714844 -1.332031 1.835938 -1.40625 1.921875 -1.46875 C 2.003906 -1.53125 2.082031 -1.613281 2.152344 -1.703125 C 2.195312 -1.765625 2.234375 -1.84375 2.261719 -1.9375 C 2.289062 -2.027344 2.304688 -2.160156 2.304688 -2.332031 C 2.304688 -2.578125 2.238281 -2.761719 2.105469 -2.878906 C 1.96875 -2.996094 1.800781 -3.050781 1.589844 -3.050781 C 1.460938 -3.050781 1.339844 -3.027344 1.222656 -2.976562 C 1.109375 -2.925781 1.019531 -2.855469 0.964844 -2.765625 C 0.976562 -2.703125 0.996094 -2.625 1.015625 -2.539062 C 1.035156 -2.453125 1.046875 -2.367188 1.046875 -2.28125 C 1.046875 -2.207031 1.015625 -2.140625 0.953125 -2.082031 C 0.890625 -2.023438 0.796875 -1.992188 0.675781 -1.992188 C 0.574219 -1.992188 0.5 -2.027344 0.445312 -2.097656 C 0.390625 -2.164062 0.363281 -2.257812 0.363281 -2.371094 C 0.363281 -2.480469 0.394531 -2.585938 0.453125 -2.695312 C 0.511719 -2.804688 0.597656 -2.902344 0.710938 -2.996094 C 0.820312 -3.085938 0.953125 -3.15625 1.117188 -3.214844 C 1.277344 -3.269531 1.449219 -3.296875 1.636719 -3.296875 C 2.046875 -3.296875 2.371094 -3.207031 2.609375 -3.023438 C 2.847656 -2.84375 2.96875 -2.597656 2.96875 -2.296875 C 2.96875 -2.152344 2.949219 -2.019531 2.90625 -1.898438 C 2.863281 -1.78125 2.792969 -1.675781 2.699219 -1.582031 C 2.59375 -1.480469 2.46875 -1.394531 2.328125 -1.324219 C 2.1875 -1.25 1.96875 -1.148438 1.679688 -1.019531 C 1.507812 -0.941406 1.34375 -0.863281 1.195312 -0.777344 C 1.046875 -0.691406 0.925781 -0.609375 0.828125 -0.53125 L 3.125 -0.53125 Z "/>
</g>
<g id="glyph-0-4">
<path d="M 3.050781 0 L 1.699219 0 L 1.699219 -0.195312 C 1.789062 -0.207031 1.867188 -0.21875 1.929688 -0.226562 C 1.992188 -0.238281 2.023438 -0.261719 2.023438 -0.304688 C 2.023438 -0.320312 2.015625 -0.351562 1.996094 -0.386719 C 1.972656 -0.425781 1.953125 -0.460938 1.933594 -0.492188 C 1.882812 -0.570312 1.816406 -0.675781 1.730469 -0.804688 C 1.644531 -0.933594 1.535156 -1.089844 1.410156 -1.273438 C 1.308594 -1.140625 1.210938 -1.015625 1.125 -0.894531 C 1.035156 -0.769531 0.945312 -0.640625 0.851562 -0.503906 C 0.835938 -0.484375 0.820312 -0.460938 0.804688 -0.429688 C 0.792969 -0.398438 0.785156 -0.375 0.785156 -0.359375 C 0.785156 -0.3125 0.8125 -0.277344 0.867188 -0.25 C 0.925781 -0.21875 1.011719 -0.199219 1.125 -0.191406 L 1.125 0 L 0.0351562 0 L 0.0351562 -0.183594 C 0.171875 -0.226562 0.28125 -0.273438 0.363281 -0.328125 C 0.445312 -0.386719 0.519531 -0.457031 0.589844 -0.539062 C 0.652344 -0.621094 0.738281 -0.730469 0.847656 -0.871094 C 0.960938 -1.007812 1.101562 -1.199219 1.277344 -1.4375 C 1.175781 -1.582031 1.050781 -1.761719 0.90625 -1.96875 C 0.761719 -2.179688 0.640625 -2.351562 0.542969 -2.492188 C 0.492188 -2.566406 0.433594 -2.628906 0.367188 -2.675781 C 0.300781 -2.722656 0.203125 -2.746094 0.0820312 -2.746094 L 0.0820312 -2.941406 L 1.363281 -2.941406 L 1.363281 -2.746094 C 1.300781 -2.746094 1.238281 -2.742188 1.175781 -2.734375 C 1.113281 -2.726562 1.082031 -2.707031 1.082031 -2.679688 C 1.082031 -2.660156 1.089844 -2.640625 1.101562 -2.621094 C 1.113281 -2.597656 1.128906 -2.574219 1.144531 -2.546875 C 1.191406 -2.480469 1.257812 -2.375 1.351562 -2.234375 C 1.441406 -2.09375 1.542969 -1.945312 1.648438 -1.789062 C 1.71875 -1.882812 1.800781 -1.996094 1.894531 -2.121094 C 1.984375 -2.25 2.070312 -2.371094 2.148438 -2.484375 C 2.15625 -2.5 2.164062 -2.515625 2.171875 -2.539062 C 2.179688 -2.558594 2.183594 -2.578125 2.183594 -2.597656 C 2.183594 -2.640625 2.152344 -2.675781 2.082031 -2.699219 C 2.011719 -2.722656 1.949219 -2.742188 1.886719 -2.75 L 1.886719 -2.941406 L 2.972656 -2.941406 L 2.972656 -2.757812 C 2.820312 -2.71875 2.699219 -2.671875 2.613281 -2.617188 C 2.527344 -2.558594 2.457031 -2.496094 2.394531 -2.425781 C 2.332031 -2.34375 2.253906 -2.242188 2.160156 -2.125 C 2.070312 -2.003906 1.945312 -1.835938 1.78125 -1.621094 C 1.960938 -1.367188 2.109375 -1.160156 2.222656 -0.996094 C 2.335938 -0.832031 2.449219 -0.664062 2.566406 -0.492188 C 2.625 -0.40625 2.6875 -0.335938 2.757812 -0.285156 C 2.828125 -0.234375 2.925781 -0.203125 3.050781 -0.195312 Z "/>
</g>
<g id="glyph-0-5">
<path d="M 1.941406 -1.777344 C 1.941406 -0.964844 1.789062 -0.320312 1.476562 0.15625 C 1.167969 0.636719 0.742188 0.910156 0.199219 0.980469 L 0.199219 0.734375 C 0.589844 0.664062 0.882812 0.417969 1.078125 -0.00390625 C 1.273438 -0.425781 1.371094 -1.015625 1.371094 -1.773438 C 1.371094 -2.566406 1.269531 -3.175781 1.070312 -3.59375 C 0.871094 -4.011719 0.582031 -4.253906 0.199219 -4.324219 L 0.199219 -4.570312 C 0.742188 -4.5 1.167969 -4.222656 1.476562 -3.738281 C 1.789062 -3.257812 1.941406 -2.605469 1.941406 -1.777344 Z "/>
</g>
</g>
</defs>
<g fill="rgb(96.862745%, 85.098039%, 43.529412%)" fill-opacity="1">
<use xlink:href="#glyph-0-0" x="30" y="25.603516"/>
<use xlink:href="#glyph-0-1" x="34" y="25.603516"/>
<use xlink:href="#glyph-0-2" x="35" y="25.603516"/>
<use xlink:href="#glyph-0-3" x="37" y="25.603516"/>
<use xlink:href="#glyph-0-4" x="40" y="25.603516"/>
<use xlink:href="#glyph-0-3" x="43" y="25.603516"/>
<use xlink:href="#glyph-0-5" x="46" y="25.603516"/>
</g>
</svg>
