<?xml version="1.0" encoding="UTF-8"?>
<svg xmlns="http://www.w3.org/2000/svg" xmlns:xlink="http://www.w3.org/1999/xlink" width="854" height="480" viewBox="0 0 854 480">
<defs>
<g>
<g id="glyph-0-0">
<path d="M 3.492188 -1.609375 C 3.492188 -1.125 3.339844 -0.722656 3.035156 -0.394531 C 2.734375 -0.0664062 2.378906 0.0976562 1.980469 0.0976562 C 1.804688 0.0976562 1.628906 0.0703125 1.460938 0.015625 C 1.289062 -0.0390625 1.128906 -0.109375 0.980469 -0.203125 L 0.738281 0.171875 L 0.539062 0.125 C 0.546875 -0.0351562 0.554688 -0.226562 0.558594 -0.453125 C 0.5625 -0.679688 0.566406 -0.898438 0.566406 -1.109375 L 0.566406 -4.285156 C 0.566406 -4.359375 0.550781 -4.433594 0.515625 -4.507812 C 0.480469 -4.582031 0.4375 -4.636719 0.386719 -4.667969 C 0.347656 -4.695312 0.277344 -4.71875 0.179688 -4.730469 C 0.0859375 -4.746094 0.0078125 -4.753906 -0.0507812 -4.757812 L -0.0507812 -4.96875 L 1.125 -5.039062 L 1.171875 -4.992188 L 1.171875 -2.875 L 1.195312 -2.867188 C 1.328125 -3.011719 1.476562 -3.117188 1.636719 -3.191406 C 1.796875 -3.261719 1.953125 -3.296875 2.105469 -3.296875 C 2.5 -3.296875 2.832031 -3.140625 3.09375 -2.828125 C 3.359375 -2.515625 3.492188 -2.109375 3.492188 -1.609375 M 2.8125 -1.585938 C 2.8125 -1.746094 2.796875 -1.910156 2.761719 -2.078125 C 2.726562 -2.242188 2.671875 -2.390625 2.597656 -2.511719 C 2.523438 -2.640625 2.425781 -2.742188 2.308594 -2.820312 C 2.1875 -2.898438 2.046875 -2.9375 1.878906 -2.9375 C 1.726562 -2.9375 1.59375 -2.90625 1.480469 -2.847656 C 1.367188 -2.785156 1.261719 -2.707031 1.171875 -2.605469 L 1.171875 -0.734375 C 1.183594 -0.683594 1.210938 -0.621094 1.25 -0.554688 C 1.285156 -0.484375 1.335938 -0.417969 1.402344 -0.355469 C 1.46875 -0.292969 1.542969 -0.246094 1.625 -0.207031 C 1.707031 -0.167969 1.808594 -0.148438 1.925781 -0.148438 C 2.191406 -0.148438 2.40625 -0.277344 2.566406 -0.535156 C 2.730469 -0.789062 2.8125 -1.140625 2.8125 -1.585938 Z "/>
</g>
<g id="glyph-0-1">
<path d="M 2.929688 -1.59375 L 0.476562 -1.59375 L 0.476562 -1.957031 C 0.5625 -2.097656 0.691406 -2.234375 0.867188 -2.375 C 1.039062 -2.507812 1.25 -2.65625 1.492188 -2.808594 C 1.570312 -2.855469 1.652344 -2.921875 1.746094 -3 C 1.839844 -3.078125 1.910156 -3.152344 1.960938 -3.21875 C 2.023438 -3.304688 2.074219 -3.398438 2.109375 -3.492188 C 2.140625 -3.585938 2.15625 -3.703125 2.15625 -3.847656 C 2.15625 -4.054688 2.105469 -4.214844 2 -4.324219 C 1.890625 -4.429688 1.753906 -4.484375 1.578125 -4.484375 C 1.453125 -4.484375 1.347656 -4.464844 1.261719 -4.421875 C 1.171875 -4.378906 1.109375 -4.332031 1.070312 -4.273438 C 1.085938 -4.222656 1.097656 -4.164062 1.113281 -4.097656 C 1.132812 -4.03125 1.140625 -3.960938 1.140625 -3.890625 C 1.140625 -3.824219 1.109375 -3.765625 1.050781 -3.714844 C 0.988281 -3.664062 0.902344 -3.640625 0.789062 -3.640625 C 0.683594 -3.640625 0.609375 -3.671875 0.566406 -3.742188 C 0.519531 -3.808594 0.496094 -3.886719 0.496094 -3.972656 C 0.496094 -4.167969 0.613281 -4.34375 0.839844 -4.5 C 1.066406 -4.652344 1.328125 -4.730469 1.628906 -4.730469 C 1.96875 -4.730469 2.246094 -4.648438 2.460938 -4.484375 C 2.675781 -4.320312 2.78125 -4.101562 2.78125 -3.824219 C 2.78125 -3.660156 2.757812 -3.519531 2.710938 -3.398438 C 2.660156 -3.28125 2.597656 -3.175781 2.515625 -3.09375 C 2.429688 -3.003906 2.335938 -2.925781 2.230469 -2.859375 C 2.125 -2.796875 2.015625 -2.738281 1.902344 -2.683594 C 1.765625 -2.613281 1.597656 -2.523438 1.398438 -2.414062 C 1.199219 -2.300781 1.035156 -2.183594 0.90625 -2.0625 L 2.929688 -2.0625 Z "/>
</g>
<g id="glyph-0-2">
</g>
<g id="glyph-0-3">
<path d="M 3.785156 -2.222656 L 0.5 -2.222656 L 0.5 -2.628906 L 3.785156 -2.628906 L 3.785156 -2.222656 M 3.785156 -1.011719 L 0.5 -1.011719 L 0.5 -1.417969 L 3.785156 -1.417969 Z "/>
</g>
<g id="glyph-0-4">
<path d="M 2.632812 0 L 0.4375 0 L 0.4375 -0.230469 C 0.503906 -0.234375 0.605469 -0.246094 0.742188 -0.257812 C 0.882812 -0.273438 0.976562 -0.289062 1.027344 -0.304688 C 1.097656 -0.324219 1.148438 -0.359375 1.183594 -0.410156 C 1.21875 -0.457031 1.238281 -0.53125 1.238281 -0.628906 L 1.238281 -2.914062 L 0.425781 -2.914062 L 0.425781 -3.1875 L 0.605469 -3.1875 C 0.839844 -3.1875 1.050781 -3.230469 1.234375 -3.316406 C 1.421875 -3.402344 1.554688 -3.496094 1.632812 -3.597656 L 1.902344 -3.597656 C 1.898438 -3.457031 1.890625 -3.289062 1.882812 -3.101562 C 1.878906 -2.914062 1.875 -2.742188 1.875 -2.59375 L 1.875 -0.664062 C 1.875 -0.589844 1.890625 -0.519531 1.925781 -0.460938 C 1.960938 -0.402344 2.007812 -0.355469 2.070312 -0.328125 C 2.125 -0.304688 2.21875 -0.28125 2.347656 -0.265625 C 2.476562 -0.242188 2.570312 -0.234375 2.632812 -0.230469 Z "/>
</g>
<g id="glyph-0-5">
<path d="M 3.5 -1.5 C 3.5 -1.273438 3.457031 -1.0625 3.378906 -0.863281 C 3.296875 -0.667969 3.1875 -0.5 3.050781 -0.359375 C 2.890625 -0.203125 2.714844 -0.0859375 2.523438 -0.0078125 C 2.332031 0.0664062 2.132812 0.105469 1.921875 0.105469 C 1.683594 0.105469 1.464844 0.0585938 1.269531 -0.0273438 C 1.074219 -0.117188 0.90625 -0.242188 0.769531 -0.40625 C 0.632812 -0.570312 0.523438 -0.773438 0.449219 -1.011719 C 0.375 -1.25 0.335938 -1.519531 0.335938 -1.816406 C 0.335938 -2.589844 0.566406 -3.242188 1.027344 -3.773438 C 1.488281 -4.304688 2.105469 -4.625 2.878906 -4.730469 L 2.9375 -4.4375 L 2.644531 -4.382812 C 2.175781 -4.234375 1.8125 -3.996094 1.554688 -3.675781 C 1.296875 -3.355469 1.128906 -2.964844 1.054688 -2.507812 C 1.242188 -2.667969 1.425781 -2.785156 1.609375 -2.851562 C 1.789062 -2.917969 1.980469 -2.953125 2.183594 -2.953125 C 2.546875 -2.953125 2.855469 -2.8125 3.113281 -2.535156 C 3.371094 -2.257812 3.5 -1.914062 3.5 -1.5 M 2.792969 -1.414062 C 2.792969 -1.765625 2.710938 -2.046875 2.550781 -2.257812 C 2.390625 -2.472656 2.171875 -2.578125 1.902344 -2.578125 C 1.738281 -2.578125 1.585938 -2.546875 1.445312 -2.488281 C 1.308594 -2.425781 1.171875 -2.324219 1.042969 -2.179688 C 1.039062 -2.15625 1.035156 -2.09375 1.03125 -2 C 1.027344 -1.90625 1.023438 -1.832031 1.023438 -1.777344 C 1.023438 -1.269531 1.109375 -0.871094 1.273438 -0.585938 C 1.441406 -0.296875 1.660156 -0.152344 1.929688 -0.152344 C 2.1875 -0.152344 2.398438 -0.265625 2.554688 -0.488281 C 2.714844 -0.714844 2.792969 -1.023438 2.792969 -1.414062 Z "/>
</g>
</g>
</defs>
<g fill="rgb(51.372549%, 75.686275%, 40.392157%)" fill-opacity="1">
<use xlink:href="#glyph-0-0" x="30" y="26.112305"/>
<use xlink:href="#glyph-0-1" x="34" y="26.112305"/>
<use xlink:href="#glyph-0-2" x="37" y="26.112305"/>
<use xlink:href="#glyph-0-3" x="39" y="26.112305"/>
<use xlink:href="#glyph-0-2" x="43" y="26.112305"/>
<use xlink:href="#glyph-0-4" x="45" y="26.112305"/>
<use xlink:href="#glyph-0-5" x="48" y="26.112305"/>
</g>
</svg>
