<?xml version="1.0" encoding="UTF-8"?>
<svg xmlns="http://www.w3.org/2000/svg" xmlns:xlink="http://www.w3.org/1999/xlink" width="854" height="480" viewBox="0 0 854 480">
<defs>
<g>
<g id="glyph-0-0">
<path d="M 5.113281 0 L 0.539062 0 L 0.539062 -0.667969 C 0.625 -0.769531 0.746094 -0.882812 0.902344 -1.007812 C 1.058594 -1.132812 1.246094 -1.269531 1.460938 -1.414062 C 1.589844 -1.503906 1.746094 -1.597656 1.929688 -1.703125 C 2.109375 -1.804688 2.316406 -1.921875 2.546875 -2.042969 C 2.804688 -2.179688 3.003906 -2.300781 3.140625 -2.40625 C 3.28125 -2.507812 3.40625 -2.636719 3.519531 -2.789062 C 3.59375 -2.890625 3.65625 -3.015625 3.703125 -3.167969 C 3.746094 -3.320312 3.769531 -3.535156 3.769531 -3.816406 C 3.769531 -4.222656 3.660156 -4.519531 3.441406 -4.710938 C 3.222656 -4.898438 2.945312 -4.996094 2.601562 -4.996094 C 2.390625 -4.996094 2.191406 -4.953125 2 -4.871094 C 1.8125 -4.789062 1.671875 -4.671875 1.578125 -4.527344 C 1.601562 -4.421875 1.628906 -4.296875 1.664062 -4.15625 C 1.695312 -4.011719 1.714844 -3.871094 1.714844 -3.734375 C 1.714844 -3.613281 1.664062 -3.5 1.558594 -3.40625 C 1.457031 -3.308594 1.304688 -3.261719 1.101562 -3.261719 C 0.941406 -3.261719 0.816406 -3.316406 0.726562 -3.429688 C 0.640625 -3.542969 0.59375 -3.691406 0.59375 -3.882812 C 0.59375 -4.058594 0.644531 -4.234375 0.742188 -4.410156 C 0.839844 -4.589844 0.980469 -4.753906 1.164062 -4.902344 C 1.339844 -5.046875 1.5625 -5.167969 1.828125 -5.257812 C 2.089844 -5.351562 2.375 -5.394531 2.679688 -5.394531 C 3.347656 -5.394531 3.878906 -5.246094 4.269531 -4.949219 C 4.664062 -4.652344 4.859375 -4.253906 4.859375 -3.757812 C 4.859375 -3.519531 4.824219 -3.304688 4.753906 -3.109375 C 4.683594 -2.914062 4.570312 -2.742188 4.414062 -2.589844 C 4.242188 -2.425781 4.039062 -2.28125 3.808594 -2.164062 C 3.578125 -2.046875 3.222656 -1.878906 2.75 -1.667969 C 2.464844 -1.542969 2.203125 -1.410156 1.957031 -1.273438 C 1.714844 -1.132812 1.515625 -1 1.359375 -0.867188 L 5.113281 -0.867188 Z "/>
</g>
<g id="glyph-0-1">
<path d="M 4.117188 -2.289062 C 4.332031 -2.121094 4.507812 -1.902344 4.652344 -1.636719 C 4.792969 -1.367188 4.863281 -1.035156 4.863281 -0.632812 C 4.863281 0.0664062 4.625 0.644531 4.144531 1.097656 C 3.667969 1.554688 3.058594 1.78125 2.324219 1.78125 C 1.753906 1.78125 1.273438 1.648438 0.878906 1.375 C 0.484375 1.105469 0.289062 0.792969 0.289062 0.433594 C 0.289062 0.269531 0.328125 0.125 0.410156 0 C 0.492188 -0.125 0.617188 -0.1875 0.785156 -0.1875 C 0.980469 -0.1875 1.128906 -0.132812 1.234375 -0.03125 C 1.335938 0.0703125 1.386719 0.183594 1.386719 0.304688 C 1.386719 0.40625 1.367188 0.539062 1.332031 0.695312 C 1.296875 0.851562 1.269531 0.964844 1.25 1.039062 C 1.277344 1.0625 1.320312 1.09375 1.375 1.132812 C 1.4375 1.171875 1.503906 1.210938 1.585938 1.246094 C 1.671875 1.28125 1.773438 1.3125 1.898438 1.339844 C 2.019531 1.367188 2.160156 1.382812 2.324219 1.382812 C 2.53125 1.382812 2.730469 1.339844 2.914062 1.253906 C 3.101562 1.171875 3.257812 1.042969 3.382812 0.878906 C 3.523438 0.695312 3.628906 0.488281 3.699219 0.257812 C 3.769531 0.0234375 3.804688 -0.273438 3.804688 -0.628906 C 3.804688 -1.089844 3.675781 -1.46875 3.421875 -1.769531 C 3.164062 -2.070312 2.828125 -2.222656 2.414062 -2.222656 C 2.152344 -2.222656 1.910156 -2.171875 1.683594 -2.074219 C 1.457031 -1.976562 1.253906 -1.816406 1.074219 -1.585938 L 0.746094 -1.714844 L 1.164062 -5.238281 L 4.65625 -5.238281 L 4.65625 -4.371094 L 1.554688 -4.371094 L 1.300781 -2.300781 C 1.449219 -2.402344 1.640625 -2.507812 1.882812 -2.609375 C 2.121094 -2.710938 2.382812 -2.765625 2.671875 -2.765625 C 2.90625 -2.765625 3.15625 -2.726562 3.410156 -2.652344 C 3.664062 -2.582031 3.902344 -2.460938 4.117188 -2.289062 Z "/>
</g>
<g id="glyph-0-2">
</g>
<g id="glyph-0-3">
<path d="M 5.679688 -3.335938 L 0.75 -3.335938 L 0.75 -3.945312 L 5.679688 -3.945312 L 5.679688 -3.335938 M 5.679688 -1.519531 L 0.75 -1.519531 L 0.75 -2.128906 L 5.679688 -2.128906 Z "/>
</g>
<g id="glyph-0-4">
<path d="M 2.578125 0.125 C 1.882812 0.125 1.335938 -0.105469 0.941406 -0.566406 C 0.546875 -1.027344 0.351562 -1.648438 0.351562 -2.425781 C 0.351562 -2.765625 0.40625 -3.082031 0.511719 -3.375 C 0.617188 -3.671875 0.769531 -3.9375 0.972656 -4.179688 C 1.164062 -4.410156 1.40625 -4.597656 1.695312 -4.738281 C 1.984375 -4.878906 2.300781 -4.949219 2.640625 -4.953125 C 3.113281 -4.949219 3.496094 -4.839844 3.792969 -4.613281 C 4.089844 -4.386719 4.238281 -4.078125 4.238281 -3.6875 C 4.238281 -3.523438 4.199219 -3.378906 4.121094 -3.253906 C 4.042969 -3.128906 3.914062 -3.066406 3.734375 -3.066406 C 3.542969 -3.066406 3.394531 -3.113281 3.289062 -3.210938 C 3.183594 -3.308594 3.128906 -3.417969 3.128906 -3.539062 C 3.128906 -3.683594 3.148438 -3.835938 3.1875 -3.988281 C 3.226562 -4.144531 3.25 -4.253906 3.257812 -4.328125 C 3.199219 -4.425781 3.113281 -4.496094 2.996094 -4.527344 C 2.882812 -4.5625 2.757812 -4.578125 2.625 -4.578125 C 2.46875 -4.578125 2.320312 -4.546875 2.179688 -4.480469 C 2.035156 -4.414062 1.898438 -4.289062 1.765625 -4.109375 C 1.644531 -3.949219 1.550781 -3.730469 1.472656 -3.453125 C 1.398438 -3.175781 1.363281 -2.84375 1.363281 -2.460938 C 1.363281 -1.855469 1.496094 -1.363281 1.765625 -0.980469 C 2.03125 -0.597656 2.382812 -0.40625 2.820312 -0.40625 C 3.136719 -0.40625 3.398438 -0.480469 3.613281 -0.636719 C 3.824219 -0.789062 4.023438 -1.019531 4.203125 -1.328125 L 4.515625 -1.125 C 4.300781 -0.738281 4.019531 -0.433594 3.667969 -0.210938 C 3.316406 0.015625 2.953125 0.125 2.578125 0.125 Z "/>
</g>
<g id="glyph-0-5">
<path d="M 4.394531 -2.390625 L 0.71875 -2.390625 L 0.71875 -2.933594 C 0.84375 -3.144531 1.039062 -3.355469 1.296875 -3.558594 C 1.558594 -3.765625 1.875 -3.984375 2.242188 -4.214844 C 2.355469 -4.285156 2.480469 -4.378906 2.621094 -4.5 C 2.757812 -4.617188 2.863281 -4.726562 2.9375 -4.828125 C 3.039062 -4.960938 3.109375 -5.09375 3.160156 -5.238281 C 3.210938 -5.378906 3.238281 -5.554688 3.238281 -5.773438 C 3.238281 -6.085938 3.15625 -6.320312 3 -6.484375 C 2.839844 -6.648438 2.628906 -6.726562 2.367188 -6.726562 C 2.183594 -6.726562 2.023438 -6.695312 1.890625 -6.632812 C 1.761719 -6.570312 1.664062 -6.496094 1.605469 -6.410156 C 1.625 -6.332031 1.648438 -6.246094 1.671875 -6.144531 C 1.695312 -6.046875 1.710938 -5.941406 1.710938 -5.835938 C 1.710938 -5.734375 1.664062 -5.644531 1.574219 -5.570312 C 1.484375 -5.496094 1.355469 -5.460938 1.179688 -5.460938 C 1.023438 -5.460938 0.914062 -5.511719 0.847656 -5.613281 C 0.78125 -5.714844 0.746094 -5.828125 0.746094 -5.957031 C 0.746094 -6.253906 0.917969 -6.515625 1.257812 -6.75 C 1.597656 -6.980469 1.992188 -7.09375 2.441406 -7.09375 C 2.953125 -7.09375 3.367188 -6.972656 3.691406 -6.726562 C 4.011719 -6.480469 4.175781 -6.152344 4.175781 -5.738281 C 4.175781 -5.492188 4.136719 -5.28125 4.066406 -5.101562 C 3.992188 -4.917969 3.894531 -4.765625 3.773438 -4.640625 C 3.648438 -4.503906 3.503906 -4.390625 3.347656 -4.292969 C 3.1875 -4.195312 3.027344 -4.105469 2.855469 -4.023438 C 2.648438 -3.921875 2.394531 -3.789062 2.097656 -3.617188 C 1.800781 -3.449219 1.554688 -3.273438 1.363281 -3.09375 L 4.394531 -3.09375 Z "/>
</g>
</g>
</defs>
<g fill="rgb(96.862745%, 85.098039%, 43.529412%)" fill-opacity="1">
<use xlink:href="#glyph-0-0" x="30" y="29.169922"/>
<use xlink:href="#glyph-0-1" x="36" y="29.169922"/>
<use xlink:href="#glyph-0-2" x="41" y="29.169922"/>
<use xlink:href="#glyph-0-3" x="43" y="29.169922"/>
<use xlink:href="#glyph-0-2" x="49" y="29.169922"/>
<use xlink:href="#glyph-0-4" x="51" y="29.169922"/>
<use xlink:href="#glyph-0-5" x="56" y="29.169922"/>
</g>
</svg>
